<?xml version="1.0" encoding="utf-8"?>
<!DOCTYPE svg PUBLIC "-//W3C//DTD SVG 20010904//EN" "http://www.w3.org/TR/2001/REC-SVG-20010904/DTD/svg10.dtd">
<svg version="1.0" xmlns="http://www.w3.org/2000/svg" width="230px" height="220px" viewBox="0 0 230 220" preserveAspectRatio="xMidYMid meet">
 <g fill="#264156">
  <path d="M0 110 l0 -110 115 0 115 0 0 110 0 110 -115 0 -115 0 0 -110z"/>
 </g>
 <g fill="#ffffff">
  <path d="M0.1 193.3 c0.1 -18.2 0.4 -25.4 1 -22.3 1.2 6.4 7.2 17.7 12.5 23.8 11.1 12.6 27.6 21.7 43.9 24.1 4.2 0.6 -3.4 0.9 -25.7 1 l-31.8 0.1 0.1 -26.7z"/>
  <path d="M80 218.5 c8.7 -1.6 23.3 -8.5 29.7 -13.9 l4.1 -3.6 7.6 5.4 c8.1 5.8 20.2 11.1 28.8 12.5 3.5 0.6 -9 0.9 -36.2 0.9 -37.9 0 -40.8 -0.1 -34 -1.3z"/>
  <path d="M172 218.9 c7.3 -1 17.6 -4.8 24.6 -9 16.5 -9.8 29.7 -29 32.3 -46.7 0.6 -3.9 0.9 4.3 1 25.6 l0.1 31.2 -31.7 -0.1 c-20.7 -0.1 -29.9 -0.4 -26.3 -1z"/>
  <path d="M59 174.4 c-9.4 -4.1 -15 -12.3 -15 -22.2 0 -25.1 34.6 -32.5 45.1 -9.7 2.2 4.8 2.5 14.2 0.6 18.8 -4.9 11.5 -19.7 17.9 -30.7 13.1z"/>
  <path d="M154.1 174.7 c-18.8 -7.1 -20.8 -33.5 -3.1 -43.1 9.8 -5.3 21.6 -3.3 28.9 5 13.1 14.9 3.4 38.2 -16.3 39.1 -3.3 0.1 -7.6 -0.3 -9.5 -1z"/>
  <path d="M228.3 139.9 c-1.6 -10.6 -7.9 -22.5 -16.2 -30.8 -17.1 -17.4 -40.8 -23.9 -66.8 -18.5 l-3.2 0.6 -0.3 -36.8 -0.3 -36.9 -2.8 -4.7 c-3.1 -5.3 -7.9 -9.4 -13.4 -11.4 -3.3 -1.1 3.9 -1.3 50.5 -1.4 l54.2 0 0 73.5 c0 40.4 -0.1 73.5 -0.3 73.5 -0.1 0 -0.8 -3.2 -1.4 -7.1z"/>
  <path d="M88.1 91.4 c-10.4 -3.2 -24.8 -3.5 -37.8 -0.8 l-3.3 0.7 0 -35.4 c0 -20.3 -0.4 -36.9 -1 -39 -1.8 -6.6 -9.3 -13.6 -17 -16 -1.4 -0.4 17.5 -0.7 42 -0.7 24.5 0 43.4 0.3 42 0.7 -4.8 1.5 -8.7 4 -12 7.7 -6 6.9 -6 6.8 -6 47.4 0 29 -0.3 37 -1.2 36.9 -0.7 -0.1 -3.3 -0.7 -5.7 -1.5z"/>
  <path d="M0 10.3 l0 -10.3 10.3 0 c9.7 0.1 10 0.1 6.4 1.4 -7.4 2.7 -12.6 7.9 -15.3 15.4 -1.3 3.5 -1.3 3.2 -1.4 -6.5z"/>
 </g>
</svg>