<svg width="26" height="30" fill="none" xmlns="http://www.w3.org/2000/svg"><path d="M15.836 12.251a1.042 1.042 0 00-.957-.628l-3.87.006c-.368 0-.695.274-.846.622l-2.008 4.645c-.11.255-.115.538-.013.797a1.035 1.035 0 00.969.659c.416 0 .791-.247.957-.629l.365-.845v8.862a1.149 1.149 0 002.295 0v-5.91h.487v5.909a1.149 1.149 0 002.295 0v-8.993l.422.976a1.042 1.042 0 101.913-.827l-2.009-4.645zM12.87 11.24a2.629 2.629 0 002.625-2.626 2.629 2.629 0 00-2.626-2.626 2.63 2.63 0 00-2.626 2.626 2.63 2.63 0 002.626 2.627z" fill="#000"/><path d="M23.765 5.921l-4.72-4.687C18.325.519 17.064 0 16.05 0H3.468a2.484 2.484 0 00-2.48 2.48v25.04A2.484 2.484 0 003.468 30h19.064a2.484 2.484 0 002.48-2.48V8.915c0-1.018-.524-2.278-1.247-2.995zM3.468 27.52V2.48H16.05c.042 0 .088.004.136.011v4.49a2.484 2.484 0 002.481 2.481h3.865V27.52H3.468z" fill="#000"/></svg>