<svg width="22" height="30" fill="none" xmlns="http://www.w3.org/2000/svg"><path d="M21.86 17.782V.68a.679.679 0 00-.68-.68H3.534A3.398 3.398 0 00.14 3.394v23.212A3.398 3.398 0 003.534 30h17.647a.679.679 0 000-1.358h-.383V24.57h.383a.679.679 0 00.679-.679v-6.108zm-1.358 5.43h-3.79l3.79-3.79v3.79zm0-18.063l-3.79-3.792h3.79V5.15zM1.498 3.394c0-1.123.913-2.037 2.036-2.037v16.147a.679.679 0 001.358 0V1.357h9.9l5.71 5.712v10.433l-5.71 5.71h-9.9V19.82a.679.679 0 00-1.358 0v3.394c-.763 0-1.469.253-2.036.68v-20.5zM19.44 28.642H3.534a2.038 2.038 0 01-2.036-2.036c0-1.122.913-2.036 2.036-2.036h15.907v4.072z" fill="#000"/></svg>