<svg width="24" height="30" fill="none" xmlns="http://www.w3.org/2000/svg"><path d="M19.793 2.344h-4.42A3.522 3.522 0 0012.06 0c-1.53 0-2.832.98-3.316 2.344H4.266A3.52 3.52 0 00.75 5.859v20.625A3.52 3.52 0 004.266 30h15.53a3.52 3.52 0 003.513-3.516V5.86a3.52 3.52 0 00-3.516-3.515zm-8.906 2.344V3.516a1.172 1.172 0 012.343 0v1.171h2.344v2.286H8.543V4.688h2.344zm10.078 21.796c0 .646-.525 1.172-1.17 1.172H4.266a1.173 1.173 0 01-1.171-1.172V5.86c0-.646.525-1.171 1.172-1.171H6.2v4.628h11.719v-4.63h1.875c.646 0 1.172.526 1.172 1.172v20.625zM16.524 13.48l1.733 1.577-7.505 8.247-4.957-4.795 1.63-1.684 3.22 3.115 5.879-6.46z" fill="#000"/></svg>