<svg display = "none" xmlns="http://www.w3.org/2000/svg">
    <symbol id="foodIcon-forks" viewBox="0 0 30 30" fill="none">
        <path d="M24.7764 0H24.7743C23.9855 0 23.3066 0.588789 23.195 1.36963L20.8716 17.6341C20.7608 18.4091 21.2501 19.1368 22.0096 19.3267L22.7885 19.5214L22.3697 27.8977C22.342 28.4508 22.537 28.9764 22.9187 29.3776C23.3004 29.7789 23.8156 29.9999 24.3694 29.9999C25.4734 29.9999 26.3715 29.1018 26.3715 27.9978V1.59524C26.3715 0.715592 25.6559 0 24.7764 0ZM25.3996 27.9977C25.3996 28.5658 24.9374 29.0279 24.3694 29.0279C24.0844 29.0279 23.8193 28.9142 23.6229 28.7078C23.4264 28.5014 23.3261 28.2309 23.3404 27.9463L23.7791 19.1711C23.7907 18.9393 23.6367 18.7316 23.4116 18.6754L22.2453 18.3838C21.9705 18.3151 21.7936 18.0519 21.8336 17.7716L24.1572 1.50706C24.2007 1.20201 24.4661 0.97192 24.7742 0.97192H24.7763C25.12 0.97192 25.3996 1.25151 25.3996 1.59524V27.9977Z" fill="black"/>
        <path d="M18.5955 0.461662C18.5821 0.193606 18.3535 -0.012311 18.0859 0.000583152C17.8179 0.0139957 17.6114 0.242138 17.6249 0.510193L18.0399 8.81201H16.5227V0.48596C16.5227 0.21758 16.3051 0 16.0367 0C15.7684 0 15.5508 0.21758 15.5508 0.48596V8.81208H14.0336L14.4486 0.510258C14.462 0.242202 14.2555 0.0140604 13.9875 0.000647947C13.7195 -0.0129589 13.4913 0.193671 13.4779 0.461727L12.9889 10.241C12.9623 10.7736 13.2214 11.2882 13.6651 11.584L14.2523 11.9754C14.4114 12.0815 14.5029 12.2589 14.4973 12.45L14.0391 27.9461C14.024 28.4902 14.2246 29.0047 14.6041 29.3949C14.9836 29.7851 15.4923 30 16.0367 30C16.581 30 17.0898 29.7851 17.4693 29.3949C17.8487 29.0047 18.0495 28.4902 18.0343 27.9452L17.5761 12.45C17.5705 12.2589 17.6621 12.0815 17.8211 11.9754L18.4083 11.584C18.8519 11.2882 19.111 10.7736 19.0844 10.241L18.5955 0.461662ZM17.8693 10.7752L17.2821 11.1666C16.8423 11.4598 16.5891 11.9503 16.6047 12.4786L17.0629 27.973C17.0707 28.2525 16.9676 28.5168 16.7727 28.7172C16.5777 28.9176 16.3164 29.028 16.0368 29.028C15.7572 29.028 15.4958 28.9176 15.3009 28.7172C15.106 28.5168 15.0029 28.2525 15.0107 27.9739L15.4689 12.4786C15.4845 11.9503 15.2313 11.4598 14.7915 11.1666L14.2043 10.7752C14.0439 10.6682 13.9502 10.4821 13.9598 10.2895L13.9851 9.78393H18.0886L18.1139 10.2895C18.1235 10.4821 18.0298 10.6682 17.8693 10.7752Z" fill="black"/>
        <path d="M7.74313 0C6.73065 0 5.32901 0.508314 4.40153 2.93002C3.83108 4.41939 3.62866 6.17435 3.62866 7.22461C3.62866 8.67056 4.36661 9.98402 5.60263 10.7382C5.94643 10.948 6.14613 11.3025 6.1368 11.6864L5.74019 27.9475C5.72691 28.4918 5.929 29.006 6.30929 29.3957C6.6895 29.7853 7.19872 29.9999 7.74313 29.9999C8.28753 29.9999 8.79682 29.7853 9.17703 29.3957C9.55732 29.0061 9.75941 28.4918 9.74613 27.9475L9.34945 11.6865C9.34012 11.3025 9.53982 10.948 9.88362 10.7382C11.1197 9.98402 11.8576 8.6705 11.8576 7.22461C11.8576 6.17435 11.6552 4.41945 11.0847 2.93002C10.1573 0.508314 8.75567 0 7.74313 0ZM9.37732 9.90847C8.74317 10.2954 8.36017 10.9857 8.37779 11.7101L8.7744 27.9711C8.78127 28.2514 8.67721 28.5162 8.4814 28.7168C8.28559 28.9175 8.02337 29.0279 7.74306 29.0279C7.46276 29.0279 7.20054 28.9175 7.00473 28.7169C6.80892 28.5163 6.70486 28.2514 6.71173 27.9711L7.10833 11.7101C7.12602 10.9858 6.74302 10.2954 6.10881 9.90847C5.16436 9.33225 4.60052 8.3289 4.60052 7.22461C4.60052 5.18455 5.36866 0.97192 7.74306 0.97192C10.1175 0.97192 10.8856 5.18455 10.8856 7.22461C10.8857 8.3289 10.3219 9.33225 9.37732 9.90847Z" fill="black"/>
    </symbol>
    <symbol id="foodIcon-book" viewBox="0 0 30 30" fill="none">
        <path d="M25.8598 17.7825V6.78767V6.78699V0.678733C25.8598 0.303937 25.5559 0 25.1811 0H7.53405C5.66278 0 4.14038 1.5224 4.14038 3.39367V26.6063C4.14038 28.4776 5.66278 30 7.53405 30H25.1811C25.5559 30 25.8598 29.6961 25.8598 29.3213C25.8598 28.9465 25.5559 28.6425 25.1811 28.6425H24.7984V24.5701H25.1811C25.5559 24.5701 25.8598 24.2662 25.8598 23.8914V17.7831V17.7825ZM24.5024 23.2127H20.7112L24.5024 19.4215V23.2127ZM24.5024 5.14867L20.7112 1.35747H24.5024V5.14867ZM5.49785 3.39367C5.49785 2.27091 6.41129 1.35747 7.53405 1.35747V17.5038C7.53405 17.8786 7.83798 18.1825 8.21278 18.1825C8.58757 18.1825 8.89151 17.8786 8.89151 17.5038V1.35747H18.7913L24.5024 7.06853V17.5017L18.7913 23.2127H8.89151V19.819C8.89151 19.4442 8.58757 19.1403 8.21278 19.1403C7.83798 19.1403 7.53405 19.4442 7.53405 19.819V23.2127C6.77074 23.2127 6.0654 23.466 5.49785 23.893V3.39367ZM23.441 28.6425H7.53405C6.41129 28.6425 5.49785 27.7291 5.49785 26.6063C5.49785 25.4836 6.41129 24.5701 7.53405 24.5701H23.441V28.6425Z" fill="black"/>
    </symbol>
    <symbol id="foodIcon-list" viewBox="0 0 30 30" fill="none">
        <path d="M22.793 2.34375H18.3735C17.8896 0.979614 16.5864 0 15.0586 0C13.5308 0 12.2276 0.979614 11.7437 2.34375H7.26562C5.327 2.34375 3.75 3.92075 3.75 5.85938V26.4844C3.75 28.423 5.327 30 7.26562 30H22.7966C24.7332 29.9979 26.3086 28.4209 26.3086 26.4844V5.85938C26.3086 3.92075 24.7316 2.34375 22.793 2.34375ZM13.8867 4.6875V3.51562C13.8867 2.86949 14.4125 2.34375 15.0586 2.34375C15.7047 2.34375 16.2305 2.86949 16.2305 3.51562V4.6875H18.5742V6.97266H11.543V4.6875H13.8867ZM23.9648 26.4844C23.9648 27.1298 23.4396 27.6556 22.7955 27.6562H7.26562C6.61949 27.6562 6.09375 27.1305 6.09375 26.4844V5.85938C6.09375 5.21324 6.61949 4.6875 7.26562 4.6875H9.19922V9.31641H20.918V4.6875H22.793C23.4391 4.6875 23.9648 5.21324 23.9648 5.85938V26.4844ZM19.5238 13.4789L21.2572 15.0563L13.7519 23.3034L8.79456 18.5083L10.4242 16.8237L13.6448 19.9388L19.5238 13.4789Z" fill="black"/>
    </symbol>
    <symbol id="foodIcon-camera" viewBox="0 0 30 30" fill="none">
        <g clip-path="url(#clip0)">
        <path d="M29.0019 6.87259C28.403 6.24521 27.576 5.87449 26.635 5.87449H21.9011V5.81745C21.9011 5.10452 21.616 4.42011 21.1312 3.96384C20.6464 3.47905 19.9905 3.19388 19.2776 3.19388H10.7224C9.98099 3.19388 9.3251 3.47905 8.8403 3.96384C8.35551 4.44863 8.07034 5.10452 8.07034 5.81745V5.87449H3.36502C2.42395 5.87449 1.59696 6.24521 0.998099 6.87259C0.39924 7.47144 0 8.32696 0 9.23951V23.441C0 24.3821 0.370722 25.2091 0.998099 25.8079C1.59696 26.4068 2.45247 26.806 3.36502 26.806H26.635C27.576 26.806 28.403 26.4353 29.0019 25.8079C29.6008 25.2091 30 24.3536 30 23.441V9.23951C30 8.29844 29.6293 7.47144 29.0019 6.87259ZM28.5171 23.441H28.4886C28.4886 23.9543 28.289 24.4106 27.9468 24.7528C27.6046 25.095 27.1483 25.2946 26.635 25.2946H3.36502C2.85171 25.2946 2.39544 25.095 2.05323 24.7528C1.71103 24.4106 1.51141 23.9543 1.51141 23.441V9.23951C1.51141 8.7262 1.71103 8.26992 2.05323 7.92772C2.39544 7.58551 2.85171 7.38589 3.36502 7.38589H8.86882C9.29658 7.38589 9.63878 7.04369 9.63878 6.61593V5.78893C9.63878 5.47525 9.75285 5.19008 9.95247 4.99046C10.1521 4.79084 10.4373 4.67677 10.751 4.67677H19.2776C19.5913 4.67677 19.8764 4.79084 20.076 4.99046C20.2757 5.19008 20.3897 5.47525 20.3897 5.78893V6.61593C20.3897 7.04369 20.7319 7.38589 21.1597 7.38589H26.6635C27.1768 7.38589 27.6331 7.58551 27.9753 7.92772C28.3175 8.26992 28.5171 8.7262 28.5171 9.23951V23.441Z" fill="black"/>
        <path d="M15.0001 9.32504C13.0609 9.32504 11.2929 10.1235 10.0381 11.3783C8.75483 12.6615 7.98486 14.4011 7.98486 16.3403C7.98486 18.2794 8.78334 20.0475 10.0381 21.3022C11.3214 22.5855 13.0609 23.3555 15.0001 23.3555C16.9392 23.3555 18.7073 22.557 19.9621 21.3022C21.2453 20.019 22.0153 18.2794 22.0153 16.3403C22.0153 14.4011 21.2168 12.633 19.9621 11.3783C18.7073 10.1235 16.9392 9.32504 15.0001 9.32504ZM18.8784 20.2471C17.8803 21.2167 16.5115 21.8441 15.0001 21.8441C13.4887 21.8441 12.1198 21.2167 11.1217 20.2471C10.1236 19.249 9.52479 17.8802 9.52479 16.3688C9.52479 14.8574 10.1522 13.4885 11.1217 12.4904C12.1198 11.4923 13.4887 10.8935 15.0001 10.8935C16.5115 10.8935 17.8803 11.5209 18.8784 12.4904C19.8765 13.4885 20.4754 14.8574 20.4754 16.3688C20.5039 17.8802 19.8765 19.249 18.8784 20.2471Z" fill="black"/>
        <path d="M25.152 12.0912C25.9237 12.0912 26.5493 11.4656 26.5493 10.6939C26.5493 9.92215 25.9237 9.29654 25.152 9.29654C24.3802 9.29654 23.7546 9.92215 23.7546 10.6939C23.7546 11.4656 24.3802 12.0912 25.152 12.0912Z" fill="black"/>
        </g>
        <defs>
        <clipPath id="clip0">
        <rect fill="white"/>
        </clipPath>
        </defs>
    </symbol>
    <symbol id="foodIcon-about" viewBox="0 0 30 30" fill="none">
        <path d="M17.8364 12.2513C17.6713 11.8693 17.2956 11.6225 16.8794 11.6225C16.8779 11.6225 13.0308 11.6291 13.0099 11.6291C12.6409 11.6291 12.3136 11.9035 12.1633 12.2513L10.1548 16.8959C10.0443 17.1513 10.0399 17.4345 10.1424 17.6933C10.2449 17.952 10.4421 18.1554 10.6975 18.2659C10.8293 18.3228 10.9682 18.3516 11.1107 18.3516C11.5269 18.3516 11.9024 18.1049 12.0675 17.723L12.4331 16.8775V25.7397C12.4331 26.3724 12.9479 26.8872 13.5807 26.8872C14.2135 26.8872 14.7283 26.3724 14.7283 25.7397V19.8311H15.2149V25.7397C15.2149 26.3724 15.7297 26.8872 16.3626 26.8872C16.9953 26.8872 17.51 26.3724 17.51 25.7397V16.7469L17.9321 17.723C18.0973 18.1048 18.4729 18.3516 18.8888 18.3516C19.0313 18.3516 19.1703 18.3227 19.302 18.2658C19.5575 18.1553 19.7546 17.952 19.8572 17.6932C19.9596 17.4345 19.9553 17.1513 19.8448 16.8958L17.8364 12.2513Z" fill="black"/>
        <path d="M14.8693 11.2405C16.3171 11.2405 17.495 10.0624 17.495 8.61432C17.495 7.1661 16.317 5.98798 14.8693 5.98798C13.421 5.98798 12.2429 7.16617 12.2429 8.61432C12.2428 10.0624 13.421 11.2405 14.8693 11.2405Z" fill="black"/>
        <path d="M25.7654 5.92119L21.0445 1.23396C20.3241 0.518941 19.0647 0 18.0499 0H5.46825C4.10044 0 2.98755 1.11289 2.98755 2.4807V27.5192C2.98755 28.8871 4.10044 30 5.46825 30H24.5315C25.8994 30 27.0123 28.8871 27.0123 27.5192V8.91587C27.0123 7.8976 26.4877 6.63802 25.7654 5.92119ZM5.46765 27.5192L5.46825 2.4801H18.0499C18.0916 2.4801 18.1376 2.48408 18.1863 2.49099V6.98162C18.1863 8.34951 19.2991 9.46239 20.667 9.46239H24.5322L24.5318 27.5199L5.46765 27.5192Z" fill="black"/>
    </symbol>
</svg>



