<svg width="26" height="32" viewBox="0 0 26 32" fill="none" xmlns="http://www.w3.org/2000/svg">
<path d="M23.4281 0H23.4259C22.5846 0 21.8604 0.628042 21.7414 1.46094L19.263 18.8097C19.1449 19.6364 19.6667 20.4126 20.4769 20.6151L21.3077 20.8228L20.861 29.7576C20.8315 30.3475 21.0394 30.9081 21.4466 31.3362C21.8537 31.7642 22.4033 31.9999 22.994 31.9999C24.1716 31.9999 25.1296 31.0419 25.1296 29.8643V1.70159C25.1296 0.763299 24.3663 0 23.4281 0ZM24.0929 29.8642C24.0929 30.4702 23.5999 30.9631 22.994 30.9631C22.69 30.9631 22.4073 30.8419 22.1977 30.6217C21.9882 30.4015 21.8812 30.113 21.8964 29.8094L22.3644 20.4491C22.3767 20.2019 22.2125 19.9804 21.9723 19.9204L20.7283 19.6094C20.4352 19.5361 20.2465 19.2554 20.2892 18.9563L22.7676 1.60753C22.8141 1.28214 23.0971 1.03671 23.4258 1.03671H23.428C23.7946 1.03671 24.0929 1.33494 24.0929 1.70159V29.8642Z" fill="black"/>
<path d="M16.8353 0.49244C16.821 0.206514 16.5771 -0.0131317 16.2917 0.000622029C16.0058 0.0149287 15.7856 0.25828 15.7999 0.544206L16.2426 9.39948H14.6243V0.518357C14.6243 0.232086 14.3922 0 14.1059 0C13.8196 0 13.5875 0.232086 13.5875 0.518357V9.39955H11.9692L12.4118 0.544275C12.4261 0.258349 12.2059 0.0149978 11.92 0.000691143C11.6342 -0.0138229 11.3907 0.206583 11.3764 0.492509L10.8549 10.9237C10.8265 11.4918 11.1029 12.0408 11.5762 12.3563L12.2025 12.7738C12.3722 12.8869 12.4698 13.0762 12.4638 13.28L11.975 29.8091C11.9589 30.3895 12.173 30.9383 12.5777 31.3545C12.9825 31.7707 13.5252 32 14.1058 32C14.6865 32 15.2291 31.7708 15.6339 31.3545C16.0387 30.9383 16.2528 30.3895 16.2366 29.8082L15.7479 13.28C15.7419 13.0762 15.8396 12.8869 16.0092 12.7738L16.6355 12.3563C17.1088 12.0408 17.3852 11.4918 17.3568 10.9237L16.8353 0.49244ZM16.0606 11.4936L15.4343 11.9111C14.9652 12.2238 14.6951 12.747 14.7118 13.3105L15.2005 29.8379C15.2088 30.136 15.0988 30.4179 14.8909 30.6317C14.6829 30.8454 14.4042 30.9632 14.106 30.9632C13.8077 30.9632 13.5289 30.8454 13.321 30.6317C13.1131 30.4179 13.0032 30.136 13.0115 29.8388L13.5002 13.3105C13.5168 12.747 13.2467 12.2238 12.7777 11.9111L12.1513 11.4936C11.9802 11.3795 11.8802 11.1809 11.8905 10.9754L11.9175 10.4362H16.2945L16.3215 10.9754C16.3317 11.1809 16.2318 11.3795 16.0606 11.4936Z" fill="black"/>
<path d="M5.25925 0C4.17927 0 2.68418 0.542202 1.69488 3.12535C1.0864 4.71401 0.870483 6.58597 0.870483 7.70625C0.870483 9.2486 1.65763 10.6496 2.97605 11.454C3.34277 11.6778 3.55578 12.056 3.54583 12.4655L3.12278 29.8107C3.10861 30.3912 3.32418 30.9398 3.72981 31.3554C4.13538 31.771 4.67855 31.9999 5.25925 31.9999C5.83995 31.9999 6.38318 31.771 6.78875 31.3554C7.19438 30.9399 7.40995 30.3912 7.39578 29.8107L6.97266 12.4656C6.96271 12.056 7.17572 11.6778 7.54244 11.454C8.86093 10.6496 9.64801 9.24853 9.64801 7.70625C9.64801 6.58597 9.4321 4.71408 8.82361 3.12535C7.83438 0.542202 6.3393 0 5.25925 0ZM7.00238 10.569C6.32596 10.9818 5.91742 11.7181 5.93622 12.4908L6.35927 29.8359C6.3666 30.1348 6.2556 30.4173 6.04674 30.6313C5.83787 30.8453 5.55817 30.9631 5.25918 30.9631C4.96019 30.9631 4.68048 30.8453 4.47162 30.6313C4.26276 30.4174 4.15176 30.1348 4.15908 29.8359L4.58213 12.4908C4.601 11.7182 4.19247 10.9818 3.51597 10.569C2.50856 9.9544 1.90713 8.88416 1.90713 7.70625C1.90713 5.53018 2.72648 1.03671 5.25918 1.03671C7.79187 1.03671 8.61122 5.53018 8.61122 7.70625C8.61129 8.88416 8.00993 9.9544 7.00238 10.569Z" fill="black"/>
</svg>
