<svg width="26" height="30" viewBox="0 0 26 30" fill="none" xmlns="http://www.w3.org/2000/svg">
<path d="M15.8364 12.2513C15.6713 11.8693 15.2956 11.6225 14.8794 11.6225C14.8779 11.6225 11.0308 11.6291 11.0099 11.6291C10.6409 11.6291 10.3136 11.9035 10.1633 12.2513L8.15476 16.8959C8.04428 17.1513 8.03992 17.4345 8.14243 17.6933C8.24494 17.952 8.44207 18.1554 8.69752 18.2659C8.82927 18.3228 8.96823 18.3516 9.11072 18.3516C9.52685 18.3516 9.9024 18.1049 10.0675 17.723L10.4331 16.8775V25.7397C10.4331 26.3724 10.9479 26.8872 11.5807 26.8872C12.2135 26.8872 12.7283 26.3724 12.7283 25.7397V19.8311H13.2149V25.7397C13.2149 26.3724 13.7297 26.8872 14.3626 26.8872C14.9953 26.8872 15.51 26.3724 15.51 25.7397V16.7469L15.9321 17.723C16.0973 18.1048 16.4729 18.3516 16.8888 18.3516C17.0313 18.3516 17.1703 18.3227 17.302 18.2658C17.5575 18.1553 17.7546 17.952 17.8572 17.6932C17.9596 17.4345 17.9553 17.1513 17.8448 16.8958L15.8364 12.2513Z" fill="black"/>
<path d="M12.8693 11.2405C14.3171 11.2405 15.495 10.0624 15.495 8.61432C15.495 7.1661 14.317 5.98798 12.8693 5.98798C11.421 5.98798 10.2429 7.16617 10.2429 8.61432C10.2428 10.0624 11.421 11.2405 12.8693 11.2405Z" fill="black"/>
<path d="M23.7654 5.92119L19.0445 1.23396C18.3241 0.518941 17.0647 0 16.0499 0H3.46825C2.10044 0 0.987549 1.11289 0.987549 2.4807V27.5192C0.987549 28.8871 2.10044 30 3.46825 30H22.5315C23.8994 30 25.0123 28.8871 25.0123 27.5192V8.91587C25.0123 7.8976 24.4877 6.63802 23.7654 5.92119ZM3.46765 27.5192L3.46825 2.4801H16.0499C16.0916 2.4801 16.1376 2.48408 16.1863 2.49099V6.98162C16.1863 8.34951 17.2991 9.46239 18.667 9.46239H22.5322L22.5318 27.5199L3.46765 27.5192Z" fill="black"/>
</svg>
