<svg fill="none" xmlns="http://www.w3.org/2000/svg">
    <symbol id="twitter-logo-big" viewBox="0 0 32 26">
        <path d="M32 3.078C30.81 3.6 29.542 3.946 28.22 4.114C29.58 3.302 30.618 2.026 31.106 0.488C29.838 1.244 28.438 1.778 26.946 2.076C25.742 0.794 24.026 0 22.154 0C18.522 0 15.598 2.948 15.598 6.562C15.598 7.082 15.642 7.582 15.75 8.058C10.296 7.792 5.47 5.178 2.228 1.196C1.662 2.178 1.33 3.302 1.33 4.512C1.33 6.784 2.5 8.798 4.244 9.964C3.19 9.944 2.156 9.638 1.28 9.156C1.28 9.176 1.28 9.202 1.28 9.228C1.28 12.416 3.554 15.064 6.536 15.674C6.002 15.82 5.42 15.89 4.816 15.89C4.396 15.89 3.972 15.866 3.574 15.778C4.424 18.376 6.836 20.286 9.704 20.348C7.472 22.094 4.638 23.146 1.57 23.146C1.032 23.146 0.516 23.122 0 23.056C2.906 24.93 6.35 26 10.064 26C22.136 26 28.736 16 28.736 7.332C28.736 7.042 28.726 6.762 28.712 6.484C30.014 5.56 31.108 4.406 32 3.078Z" fill="#E5E5E5"/>
    </symbol>
    <symbol id="twitter-logo-small" viewBox="0 0 16 14" fill="none">
        <path d="M16 2.039C15.405 2.3 14.771 2.473 14.11 2.557C14.79 2.151 15.309 1.513 15.553 0.744C14.919 1.122 14.219 1.389 13.473 1.538C12.871 0.897 12.013 0.5 11.077 0.5C9.261 0.5 7.799 1.974 7.799 3.781C7.799 4.041 7.821 4.291 7.875 4.529C5.148 4.396 2.735 3.089 1.114 1.098C0.831 1.589 0.665 2.151 0.665 2.756C0.665 3.892 1.25 4.899 2.122 5.482C1.595 5.472 1.078 5.319 0.64 5.078C0.64 5.088 0.64 5.101 0.64 5.114C0.64 6.708 1.777 8.032 3.268 8.337C3.001 8.41 2.71 8.445 2.408 8.445C2.198 8.445 1.986 8.433 1.787 8.389C2.212 9.688 3.418 10.643 4.852 10.674C3.736 11.547 2.319 12.073 0.785 12.073C0.516 12.073 0.258 12.061 0 12.028C1.453 12.965 3.175 13.5 5.032 13.5C11.068 13.5 14.368 8.5 14.368 4.166C14.368 4.021 14.363 3.881 14.356 3.742C15.007 3.28 15.554 2.703 16 2.039Z" fill="#34ACA7"/>
    </symbol>
</svg>
